# xmcd CD database file
#
# Track frame offsets:
#	150
#	19890
#	41037
#	61195
#	75090
#	91617
#	108327
#	128010
#	148952
#	172802
#
# Disc length: 2490 seconds
#
# Revision: 3
# Processed by: cddbd v1.5.2PL0 Copyright (c) Steve Scherf et al.
# Submitted via: CDex 1.51
#
DISCID=7109b80a
DTITLE=Manhattans - Greatest Hits [1980 Compilation]
DYEAR=1980
DGENRE=Soul/R&B
TTITLE0=I'll Never Find Another (Find Another Like You)
TTITLE1=Shinning Star
TTITLE2=Kiss And Say Goodbye
TTITLE3=Hurt
TTITLE4=There's No Me Without You
TTITLE5=Do You Really Mean Goodbye?
TTITLE6=We Never Danced To A Love Song
TTITLE7=It Feels So Good To Be Loved So Bad
TTITLE8=I Kinda Miss You
TTITLE9=Don't Take Your Love
EXTD=YEAR: 1980
EXTT0=
EXTT1=
EXTT2=
EXTT3=
EXTT4=
EXTT5=
EXTT6=
EXTT7=
EXTT8=
EXTT9=
PLAYORDER=
